<svg id="visual" viewBox="0 0 900 350" width="900" height="350" xmlns="http://www.w3.org/2000/svg" xmlns:xlink="http://www.w3.org/1999/xlink" version="1.1"><rect x="0" y="0" width="900" height="350" fill="#020e17"></rect><defs><linearGradient id="grad1_0" x1="61.1%" y1="0%" x2="100%" y2="100%"><stop offset="-1.4285714285714342%" stop-color="#020e17" stop-opacity="1"></stop><stop offset="101.42857142857143%" stop-color="#020e17" stop-opacity="1"></stop></linearGradient></defs><defs><linearGradient id="grad2_0" x1="0%" y1="0%" x2="38.9%" y2="100%"><stop offset="-1.4285714285714342%" stop-color="#020e17" stop-opacity="1"></stop><stop offset="101.42857142857143%" stop-color="#020e17" stop-opacity="1"></stop></linearGradient></defs><g transform="translate(900, 0)"><path d="M0 175C-14.7 168.1 -29.4 161.2 -39.6 147.8C-49.8 134.4 -55.6 114.6 -57.5 99.6C-59.4 84.6 -57.4 74.5 -76.4 76.4C-95.3 78.2 -135.3 91.9 -151.6 87.5C-167.8 83.1 -160.4 60.6 -160.3 43C-160.3 25.4 -167.7 12.7 -175 0L0 0Z" fill="#0e414b"></path></g><g transform="translate(0, 350)"><path d="M0 -175C14.6 -168.7 29.1 -162.4 40.6 -151.7C52.1 -140.9 60.6 -125.7 65 -112.6C69.4 -99.4 69.9 -88.3 87 -87C104.1 -85.6 137.9 -94 151.6 -87.5C165.2 -81 158.8 -59.8 159.4 -42.7C159.9 -25.7 167.5 -12.8 175 0L0 0Z" fill="#0e414b"></path></g></svg>