<svg id="visual" viewBox="0 0 900 350" width="900" height="350" xmlns="http://www.w3.org/2000/svg" xmlns:xlink="http://www.w3.org/1999/xlink" version="1.1"><rect x="0" y="0" width="900" height="350" fill="#72a8bf"></rect><defs><linearGradient id="grad1_0" x1="61.1%" y1="0%" x2="100%" y2="100%"><stop offset="-1.4285714285714342%" stop-color="#72a8bf" stop-opacity="1"></stop><stop offset="101.42857142857143%" stop-color="#72a8bf" stop-opacity="1"></stop></linearGradient></defs><defs><linearGradient id="grad2_0" x1="0%" y1="0%" x2="38.9%" y2="100%"><stop offset="-1.4285714285714342%" stop-color="#72a8bf" stop-opacity="1"></stop><stop offset="101.42857142857143%" stop-color="#72a8bf" stop-opacity="1"></stop></linearGradient></defs><g transform="translate(900, 0)"><path d="M0 175C-17.7 178.2 -35.4 181.4 -45.3 169C-55.2 156.7 -57.3 128.8 -67.5 116.9C-77.7 105 -95.8 109.2 -101.8 101.8C-107.8 94.4 -101.7 75.5 -113.4 65.5C-125.2 55.5 -154.8 54.5 -168.1 45C-181.3 35.6 -178.2 17.8 -175 0L0 0Z" fill="#a1c5d7"></path></g><g transform="translate(0, 350)"><path d="M0 -175C10.6 -151.1 21.3 -127.1 31.1 -115.9C40.8 -104.7 49.8 -106.2 61 -105.7C72.2 -105.1 85.8 -102.6 97.6 -97.6C109.4 -92.6 119.5 -85.1 132.5 -76.5C145.5 -67.9 161.5 -58.2 169 -45.3C176.6 -32.4 175.8 -16.2 175 0L0 0Z" fill="#a1c5d7"></path></g></svg>