<svg id="visual" viewBox="0 0 1000 350" width="1000" height="350" xmlns="http://www.w3.org/2000/svg" xmlns:xlink="http://www.w3.org/1999/xlink" version="1.1"><rect x="0" y="0" width="1000" height="350" fill="#7fbae9"></rect><defs><linearGradient id="grad1_0" x1="65%" y1="0%" x2="100%" y2="100%"><stop offset="-7.142857142857142%" stop-color="#7fbae9" stop-opacity="1"></stop><stop offset="107.14285714285714%" stop-color="#7fbae9" stop-opacity="1"></stop></linearGradient></defs><defs><linearGradient id="grad2_0" x1="0%" y1="0%" x2="35%" y2="100%"><stop offset="-7.142857142857142%" stop-color="#7fbae9" stop-opacity="1"></stop><stop offset="107.14285714285714%" stop-color="#7fbae9" stop-opacity="1"></stop></linearGradient></defs><g transform="translate(1000, 0)"><path d="M0 175C-14.6 169.4 -29.3 163.9 -41.2 153.6C-53 143.3 -62.1 128.2 -66 114.3C-69.9 100.4 -68.7 87.8 -86.3 86.3C-103.8 84.7 -140 94.3 -151.6 87.5C-163.1 80.7 -149.9 57.4 -149.7 40.1C-149.5 22.8 -162.3 11.4 -175 0L0 0Z" fill="#a9cde1"></path></g><g transform="translate(0, 350)"><path d="M0 -175C18 -179.2 36.1 -183.4 45.3 -169C54.5 -154.6 55 -121.6 63 -109.1C71 -96.6 86.7 -104.6 104.7 -104.7C122.7 -104.7 143 -96.9 143.8 -83C144.5 -69.1 125.6 -49 127.5 -34.2C129.4 -19.3 152.2 -9.7 175 0L0 0Z" fill="#a9cde1"></path></g></svg>