<svg id="visual" viewBox="0 0 900 600" width="900" height="600" xmlns="http://www.w3.org/2000/svg" xmlns:xlink="http://www.w3.org/1999/xlink" version="1.1"><path d="M0 169L90 169L90 181L180 181L180 187L270 187L270 85L360 85L360 127L450 127L450 55L540 55L540 289L630 289L630 157L720 157L720 85L810 85L810 61L900 61L900 181L900 0L900 0L810 0L810 0L720 0L720 0L630 0L630 0L540 0L540 0L450 0L450 0L360 0L360 0L270 0L270 0L180 0L180 0L90 0L90 0L0 0Z" fill="#fa7268"></path><path d="M0 235L90 235L90 271L180 271L180 253L270 253L270 127L360 127L360 211L450 211L450 91L540 91L540 349L630 349L630 217L720 217L720 151L810 151L810 145L900 145L900 265L900 179L900 59L810 59L810 83L720 83L720 155L630 155L630 287L540 287L540 53L450 53L450 125L360 125L360 83L270 83L270 185L180 185L180 179L90 179L90 167L0 167Z" fill="#df5d61"></path><path d="M0 373L90 373L90 403L180 403L180 391L270 391L270 397L360 397L360 397L450 397L450 277L540 277L540 415L630 415L630 385L720 385L720 361L810 361L810 313L900 313L900 343L900 263L900 143L810 143L810 149L720 149L720 215L630 215L630 347L540 347L540 89L450 89L450 209L360 209L360 125L270 125L270 251L180 251L180 269L90 269L90 233L0 233Z" fill="#c34958"></path><path d="M0 451L90 451L90 445L180 445L180 511L270 511L270 457L360 457L360 451L450 451L450 427L540 427L540 457L630 457L630 445L720 445L720 427L810 427L810 451L900 451L900 463L900 341L900 311L810 311L810 359L720 359L720 383L630 383L630 413L540 413L540 275L450 275L450 395L360 395L360 395L270 395L270 389L180 389L180 401L90 401L90 371L0 371Z" fill="#a7374f"></path><path d="M0 517L90 517L90 559L180 559L180 547L270 547L270 547L360 547L360 535L450 535L450 499L540 499L540 565L630 565L630 571L720 571L720 535L810 535L810 547L900 547L900 529L900 461L900 449L810 449L810 425L720 425L720 443L630 443L630 455L540 455L540 425L450 425L450 449L360 449L360 455L270 455L270 509L180 509L180 443L90 443L90 449L0 449Z" fill="#8b2546"></path><path d="M0 601L90 601L90 601L180 601L180 601L270 601L270 601L360 601L360 601L450 601L450 601L540 601L540 601L630 601L630 601L720 601L720 601L810 601L810 601L900 601L900 601L900 527L900 545L810 545L810 533L720 533L720 569L630 569L630 563L540 563L540 497L450 497L450 533L360 533L360 545L270 545L270 545L180 545L180 557L90 557L90 515L0 515Z" fill="#70133b"></path></svg>